<svg width="256" height="72" viewBox="0 0 256 72" fill="none" xmlns="http://www.w3.org/2000/svg">
<path d="M114.76 26.96L109.72 35.96H104.68L99.64 26.96V41H93.16V15.8H100L107.2 29.12L114.4 15.8H121.24V41H114.76V26.96ZM132.774 36.32C133.23 36.32 133.71 36.284 134.214 36.212C134.718 36.14 135.186 36.056 135.618 35.96C136.122 35.864 136.614 35.744 137.094 35.6V33.44H131.874C131.514 33.44 131.214 33.56 130.974 33.8C130.734 34.04 130.614 34.34 130.614 34.7V35.06C130.614 35.42 130.734 35.72 130.974 35.96C131.214 36.2 131.514 36.32 131.874 36.32H132.774ZM129.714 41.36C128.082 41.36 126.774 40.868 125.79 39.884C124.806 38.9 124.314 37.592 124.314 35.96V34.34C124.314 32.708 124.806 31.4 125.79 30.416C126.774 29.432 128.082 28.94 129.714 28.94H137.094V27.5C137.094 27.14 136.974 26.84 136.734 26.6C136.494 26.36 136.194 26.24 135.834 26.24C134.874 26.24 133.83 26.276 132.702 26.348C131.598 26.396 130.554 26.456 129.57 26.528C128.418 26.624 127.266 26.708 126.114 26.78V22.28C127.434 22.136 128.778 22.016 130.146 21.92C131.322 21.824 132.606 21.74 133.998 21.668C135.39 21.596 136.722 21.56 137.994 21.56C139.626 21.56 140.934 22.052 141.918 23.036C142.902 24.02 143.394 25.328 143.394 26.96V41H137.814L137.454 39.2C136.83 39.608 136.158 39.968 135.438 40.28C134.814 40.544 134.118 40.784 133.35 41C132.582 41.24 131.79 41.36 130.974 41.36H129.714ZM155.624 33.8H152.924V41H146.624V21.92H152.924V28.94H155.804L157.784 24.98C158 24.524 158.264 24.092 158.576 23.684C158.912 23.276 159.296 22.916 159.728 22.604C160.16 22.292 160.64 22.04 161.168 21.848C161.72 21.656 162.332 21.56 163.004 21.56C163.364 21.56 163.712 21.584 164.048 21.632C164.408 21.656 164.72 21.692 164.984 21.74L165.884 21.92V26.78H164.624C164.168 26.78 163.784 26.9 163.472 27.14C163.184 27.356 162.968 27.596 162.824 27.86L161.024 31.46L166.424 41H159.584L155.624 33.8ZM187.65 21.92V41H181.35V26.78H176.31L175.77 35.96C175.674 37.592 175.134 38.9 174.15 39.884C173.166 40.868 171.906 41.36 170.37 41.36C170.01 41.36 169.614 41.336 169.182 41.288C168.774 41.264 168.39 41.228 168.03 41.18C167.598 41.132 167.178 41.072 166.77 41V36.32H168.21C169.122 36.32 169.602 35.84 169.65 34.88L170.37 21.92H187.65ZM198.798 36.32C199.254 36.32 199.734 36.284 200.238 36.212C200.742 36.14 201.21 36.056 201.642 35.96C202.146 35.864 202.638 35.744 203.118 35.6V33.44H197.898C197.538 33.44 197.238 33.56 196.998 33.8C196.758 34.04 196.638 34.34 196.638 34.7V35.06C196.638 35.42 196.758 35.72 196.998 35.96C197.238 36.2 197.538 36.32 197.898 36.32H198.798ZM195.738 41.36C194.106 41.36 192.798 40.868 191.813 39.884C190.83 38.9 190.338 37.592 190.338 35.96V34.34C190.338 32.708 190.83 31.4 191.813 30.416C192.798 29.432 194.106 28.94 195.738 28.94H203.118V27.5C203.118 27.14 202.998 26.84 202.758 26.6C202.518 26.36 202.218 26.24 201.858 26.24C200.898 26.24 199.854 26.276 198.726 26.348C197.622 26.396 196.578 26.456 195.594 26.528C194.442 26.624 193.29 26.708 192.138 26.78V22.28C193.458 22.136 194.802 22.016 196.17 21.92C197.346 21.824 198.63 21.74 200.021 21.668C201.414 21.596 202.746 21.56 204.018 21.56C205.65 21.56 206.958 22.052 207.941 23.036C208.926 24.02 209.418 25.328 209.418 26.96V41H203.838L203.478 39.2C202.854 39.608 202.182 39.968 201.462 40.28C200.838 40.544 200.142 40.784 199.374 41C198.606 41.24 197.814 41.36 196.998 41.36H195.738ZM225.076 21.92H231.736L224.536 41.72C223.84 43.616 222.94 45.044 221.836 46.004C220.732 46.988 219.232 47.48 217.336 47.48C216.88 47.48 216.376 47.456 215.824 47.408C215.296 47.384 214.792 47.348 214.312 47.3C213.76 47.252 213.208 47.192 212.656 47.12V42.44H215.896C216.808 42.44 217.396 42.188 217.66 41.684C217.948 41.18 217.9 40.472 217.516 39.56L210.136 21.92H216.796L221.296 34.16L225.076 21.92ZM240.584 32C240.536 32.624 240.428 33.2 240.26 33.728C240.116 34.232 239.96 34.664 239.792 35.024C239.6 35.456 239.384 35.828 239.144 36.14H245.444V26.78H240.944L240.584 32ZM251.744 21.92V36.14H254.444V45.32H248.468L248.108 41H237.02L236.66 45.32H230.684V36.14H233.024C233.288 35.828 233.54 35.468 233.78 35.06C233.972 34.724 234.152 34.328 234.32 33.872C234.488 33.416 234.596 32.912 234.644 32.36L235.364 21.92H251.744Z" fill="#01196F"/>
<path d="M94.0396 63H92.1938V52.3359H94.0396V63ZM97.8188 55.0752L97.8701 55.9028C98.4268 55.2534 99.1885 54.9287 100.155 54.9287C101.215 54.9287 101.94 55.334 102.331 56.1445C102.907 55.334 103.717 54.9287 104.762 54.9287C105.636 54.9287 106.286 55.1704 106.71 55.6538C107.14 56.1372 107.36 56.8501 107.37 57.7925V63H105.59V57.8438C105.59 57.3408 105.48 56.9722 105.26 56.7378C105.041 56.5034 104.677 56.3862 104.169 56.3862C103.764 56.3862 103.432 56.4961 103.173 56.7158C102.919 56.9307 102.741 57.2139 102.638 57.5654L102.646 63H100.866V57.7852C100.841 56.8525 100.365 56.3862 99.4375 56.3862C98.7246 56.3862 98.2192 56.6768 97.9214 57.2578V63H96.1416V55.0752H97.8188ZM110.871 55.0752L110.922 55.9028C111.479 55.2534 112.24 54.9287 113.207 54.9287C114.267 54.9287 114.992 55.334 115.382 56.1445C115.958 55.334 116.769 54.9287 117.814 54.9287C118.688 54.9287 119.337 55.1704 119.762 55.6538C120.192 56.1372 120.412 56.8501 120.421 57.7925V63H118.642V57.8438C118.642 57.3408 118.532 56.9722 118.312 56.7378C118.092 56.5034 117.729 56.3862 117.221 56.3862C116.815 56.3862 116.483 56.4961 116.225 56.7158C115.971 56.9307 115.792 57.2139 115.69 57.5654L115.697 63H113.917V57.7852C113.893 56.8525 113.417 56.3862 112.489 56.3862C111.776 56.3862 111.271 56.6768 110.973 57.2578V63H109.193V55.0752H110.871ZM121.916 58.9644C121.916 58.188 122.069 57.4897 122.377 56.8696C122.685 56.2446 123.117 55.7661 123.673 55.4341C124.23 55.0972 124.87 54.9287 125.592 54.9287C126.662 54.9287 127.528 55.2729 128.192 55.9614C128.861 56.6499 129.223 57.563 129.276 58.7007L129.284 59.1182C129.284 59.8994 129.132 60.5977 128.83 61.2129C128.532 61.8281 128.102 62.3042 127.541 62.6411C126.984 62.978 126.339 63.1465 125.607 63.1465C124.489 63.1465 123.593 62.7754 122.919 62.0332C122.25 61.2861 121.916 60.2925 121.916 59.0522V58.9644ZM123.695 59.1182C123.695 59.9336 123.864 60.5732 124.201 61.0371C124.538 61.4961 125.006 61.7256 125.607 61.7256C126.208 61.7256 126.674 61.4912 127.006 61.0225C127.343 60.5537 127.511 59.8677 127.511 58.9644C127.511 58.1636 127.338 57.5288 126.991 57.0601C126.649 56.5913 126.183 56.3569 125.592 56.3569C125.011 56.3569 124.55 56.5889 124.208 57.0527C123.866 57.5117 123.695 58.2002 123.695 59.1182ZM134.938 56.7012C134.704 56.6621 134.462 56.6426 134.213 56.6426C133.397 56.6426 132.848 56.9551 132.565 57.5801V63H130.785V55.0752H132.484L132.528 55.9614C132.958 55.2729 133.554 54.9287 134.315 54.9287C134.569 54.9287 134.779 54.9629 134.945 55.0312L134.938 56.7012ZM138.659 53.1489V55.0752H140.058V56.3936H138.659V60.8174C138.659 61.1201 138.717 61.3398 138.834 61.4766C138.957 61.6084 139.171 61.6743 139.479 61.6743C139.684 61.6743 139.892 61.6499 140.102 61.6011V62.978C139.696 63.0903 139.306 63.1465 138.93 63.1465C137.562 63.1465 136.879 62.3921 136.879 60.8833V56.3936H135.575V55.0752H136.879V53.1489H138.659ZM146.159 63C146.081 62.8486 146.012 62.6021 145.954 62.2603C145.387 62.8511 144.694 63.1465 143.874 63.1465C143.078 63.1465 142.428 62.9194 141.925 62.4653C141.422 62.0112 141.171 61.4497 141.171 60.7808C141.171 59.936 141.483 59.2891 142.108 58.8398C142.738 58.3857 143.637 58.1587 144.804 58.1587H145.895V57.6387C145.895 57.2285 145.78 56.9014 145.551 56.6572C145.321 56.4082 144.972 56.2837 144.503 56.2837C144.098 56.2837 143.766 56.3862 143.507 56.5913C143.249 56.7915 143.119 57.0479 143.119 57.3604H141.339C141.339 56.9258 141.483 56.5205 141.771 56.1445C142.06 55.7637 142.45 55.4658 142.943 55.251C143.441 55.0361 143.996 54.9287 144.606 54.9287C145.534 54.9287 146.273 55.1631 146.825 55.6318C147.377 56.0957 147.66 56.75 147.675 57.5947V61.1689C147.675 61.8818 147.775 62.4507 147.975 62.8755V63H146.159ZM144.203 61.7183C144.555 61.7183 144.884 61.6328 145.192 61.4619C145.504 61.291 145.739 61.0615 145.895 60.7734V59.2793H144.936C144.276 59.2793 143.781 59.394 143.449 59.6235C143.117 59.853 142.951 60.1777 142.951 60.5977C142.951 60.9395 143.063 61.2129 143.288 61.418C143.517 61.6182 143.822 61.7183 144.203 61.7183ZM151.432 63H149.652V51.75H151.432V63ZM160.368 61.7256C160.812 61.7256 161.181 61.5962 161.474 61.3374C161.767 61.0786 161.923 60.7588 161.942 60.3779H163.62C163.6 60.8711 163.446 61.3325 163.158 61.7622C162.87 62.187 162.479 62.5239 161.986 62.7729C161.493 63.022 160.961 63.1465 160.39 63.1465C159.281 63.1465 158.402 62.7876 157.753 62.0698C157.104 61.3521 156.779 60.3608 156.779 59.0962V58.9131C156.779 57.707 157.101 56.7427 157.746 56.02C158.39 55.2925 159.269 54.9287 160.382 54.9287C161.325 54.9287 162.091 55.2046 162.682 55.7563C163.278 56.3032 163.59 57.0234 163.62 57.917H161.942C161.923 57.4629 161.767 57.0894 161.474 56.7964C161.186 56.5034 160.817 56.3569 160.368 56.3569C159.792 56.3569 159.347 56.5669 159.035 56.9868C158.722 57.4019 158.563 58.0342 158.559 58.8838V59.1694C158.559 60.0288 158.712 60.6709 159.02 61.0957C159.333 61.5156 159.782 61.7256 160.368 61.7256ZM166.857 63H165.077V51.75H166.857V63ZM168.468 58.9644C168.468 58.188 168.622 57.4897 168.93 56.8696C169.237 56.2446 169.669 55.7661 170.226 55.4341C170.783 55.0972 171.422 54.9287 172.145 54.9287C173.214 54.9287 174.081 55.2729 174.745 55.9614C175.414 56.6499 175.775 57.563 175.829 58.7007L175.836 59.1182C175.836 59.8994 175.685 60.5977 175.382 61.2129C175.084 61.8281 174.655 62.3042 174.093 62.6411C173.537 62.978 172.892 63.1465 172.16 63.1465C171.042 63.1465 170.146 62.7754 169.472 62.0332C168.803 61.2861 168.468 60.2925 168.468 59.0522V58.9644ZM170.248 59.1182C170.248 59.9336 170.417 60.5732 170.753 61.0371C171.09 61.4961 171.559 61.7256 172.16 61.7256C172.76 61.7256 173.227 61.4912 173.559 61.0225C173.896 60.5537 174.064 59.8677 174.064 58.9644C174.064 58.1636 173.891 57.5288 173.544 57.0601C173.202 56.5913 172.736 56.3569 172.145 56.3569C171.564 56.3569 171.103 56.5889 170.761 57.0527C170.419 57.5117 170.248 58.2002 170.248 59.1182ZM182.143 62.2236C181.62 62.8389 180.878 63.1465 179.916 63.1465C179.057 63.1465 178.405 62.895 177.96 62.3921C177.521 61.8892 177.301 61.1616 177.301 60.2095V55.0752H179.081V60.1875C179.081 61.1934 179.499 61.6963 180.333 61.6963C181.198 61.6963 181.781 61.3862 182.084 60.7661V55.0752H183.864V63H182.187L182.143 62.2236ZM185.343 58.979C185.343 57.7583 185.626 56.7793 186.193 56.042C186.759 55.2998 187.519 54.9287 188.471 54.9287C189.311 54.9287 189.989 55.2217 190.507 55.8076V51.75H192.287V63H190.675L190.587 62.1797C190.055 62.8242 189.345 63.1465 188.456 63.1465C187.528 63.1465 186.776 62.7729 186.2 62.0259C185.629 61.2788 185.343 60.2632 185.343 58.979ZM187.123 59.1328C187.123 59.9385 187.277 60.5684 187.584 61.0225C187.897 61.4717 188.339 61.6963 188.91 61.6963C189.638 61.6963 190.17 61.3716 190.507 60.7222V57.3384C190.18 56.7036 189.652 56.3862 188.925 56.3862C188.349 56.3862 187.904 56.6157 187.592 57.0747C187.279 57.5288 187.123 58.2148 187.123 59.1328ZM202.321 60.8467C202.321 60.5293 202.189 60.2876 201.925 60.1216C201.667 59.9556 201.234 59.8091 200.629 59.6821C200.023 59.5552 199.518 59.394 199.113 59.1987C198.224 58.769 197.78 58.1465 197.78 57.3311C197.78 56.6475 198.068 56.0762 198.644 55.6172C199.22 55.1582 199.953 54.9287 200.841 54.9287C201.789 54.9287 202.553 55.1631 203.134 55.6318C203.72 56.1006 204.013 56.7085 204.013 57.4556H202.233C202.233 57.1138 202.106 56.8306 201.852 56.606C201.598 56.3765 201.261 56.2617 200.841 56.2617C200.451 56.2617 200.131 56.3521 199.882 56.5327C199.638 56.7134 199.516 56.9551 199.516 57.2578C199.516 57.5312 199.63 57.7437 199.86 57.895C200.089 58.0464 200.553 58.2002 201.251 58.3564C201.95 58.5078 202.497 58.6909 202.892 58.9058C203.292 59.1157 203.588 59.3696 203.778 59.6675C203.974 59.9653 204.071 60.3267 204.071 60.7515C204.071 61.4644 203.776 62.043 203.185 62.4873C202.594 62.9268 201.82 63.1465 200.863 63.1465C200.214 63.1465 199.635 63.0293 199.127 62.7949C198.62 62.5605 198.224 62.2383 197.941 61.8281C197.658 61.418 197.516 60.9761 197.516 60.5024H199.245C199.269 60.9224 199.428 61.2471 199.721 61.4766C200.014 61.7012 200.402 61.8135 200.885 61.8135C201.354 61.8135 201.71 61.7256 201.955 61.5498C202.199 61.3691 202.321 61.1348 202.321 60.8467ZM208.4 60.4512L210.011 55.0752H211.908L208.759 64.2012C208.275 65.5342 207.455 66.2007 206.298 66.2007C206.039 66.2007 205.753 66.1567 205.441 66.0688V64.6919L205.778 64.7139C206.227 64.7139 206.564 64.6309 206.789 64.4648C207.018 64.3037 207.199 64.0303 207.331 63.6445L207.587 62.9634L204.804 55.0752H206.723L208.4 60.4512ZM217.379 60.8467C217.379 60.5293 217.248 60.2876 216.984 60.1216C216.725 59.9556 216.293 59.8091 215.688 59.6821C215.082 59.5552 214.577 59.394 214.171 59.1987C213.283 58.769 212.838 58.1465 212.838 57.3311C212.838 56.6475 213.126 56.0762 213.703 55.6172C214.279 55.1582 215.011 54.9287 215.9 54.9287C216.847 54.9287 217.611 55.1631 218.192 55.6318C218.778 56.1006 219.071 56.7085 219.071 57.4556H217.292C217.292 57.1138 217.165 56.8306 216.911 56.606C216.657 56.3765 216.32 56.2617 215.9 56.2617C215.509 56.2617 215.189 56.3521 214.94 56.5327C214.696 56.7134 214.574 56.9551 214.574 57.2578C214.574 57.5312 214.689 57.7437 214.918 57.895C215.148 58.0464 215.612 58.2002 216.31 58.3564C217.008 58.5078 217.555 58.6909 217.951 58.9058C218.351 59.1157 218.646 59.3696 218.837 59.6675C219.032 59.9653 219.13 60.3267 219.13 60.7515C219.13 61.4644 218.834 62.043 218.244 62.4873C217.653 62.9268 216.879 63.1465 215.922 63.1465C215.272 63.1465 214.694 63.0293 214.186 62.7949C213.678 62.5605 213.283 62.2383 213 61.8281C212.716 61.418 212.575 60.9761 212.575 60.5024H214.303C214.328 60.9224 214.486 61.2471 214.779 61.4766C215.072 61.7012 215.46 61.8135 215.944 61.8135C216.413 61.8135 216.769 61.7256 217.013 61.5498C217.257 61.3691 217.379 61.1348 217.379 60.8467ZM222.917 53.1489V55.0752H224.315V56.3936H222.917V60.8174C222.917 61.1201 222.975 61.3398 223.092 61.4766C223.214 61.6084 223.429 61.6743 223.737 61.6743C223.942 61.6743 224.149 61.6499 224.359 61.6011V62.978C223.954 63.0903 223.563 63.1465 223.188 63.1465C221.82 63.1465 221.137 62.3921 221.137 60.8833V56.3936H219.833V55.0752H221.137V53.1489H222.917ZM229.171 63.1465C228.043 63.1465 227.128 62.7925 226.425 62.0845C225.727 61.3716 225.377 60.4243 225.377 59.2427V59.0229C225.377 58.2319 225.529 57.5264 225.832 56.9062C226.139 56.2812 226.569 55.7954 227.121 55.4487C227.672 55.1021 228.288 54.9287 228.966 54.9287C230.045 54.9287 230.878 55.2729 231.464 55.9614C232.055 56.6499 232.35 57.624 232.35 58.8838V59.6016H227.172C227.226 60.2559 227.443 60.7734 227.824 61.1543C228.209 61.5352 228.693 61.7256 229.274 61.7256C230.089 61.7256 230.753 61.396 231.266 60.7368L232.226 61.6523C231.908 62.126 231.483 62.4946 230.951 62.7583C230.424 63.0171 229.831 63.1465 229.171 63.1465ZM228.959 56.3569C228.471 56.3569 228.075 56.5278 227.772 56.8696C227.475 57.2114 227.284 57.6875 227.201 58.2979H230.592V58.166C230.553 57.5703 230.395 57.1211 230.116 56.8184C229.838 56.5107 229.452 56.3569 228.959 56.3569ZM235.412 55.0752L235.463 55.9028C236.02 55.2534 236.781 54.9287 237.748 54.9287C238.808 54.9287 239.533 55.334 239.923 56.1445C240.5 55.334 241.31 54.9287 242.355 54.9287C243.229 54.9287 243.878 55.1704 244.303 55.6538C244.733 56.1372 244.953 56.8501 244.962 57.7925V63H243.183V57.8438C243.183 57.3408 243.073 56.9722 242.853 56.7378C242.633 56.5034 242.27 56.3862 241.762 56.3862C241.356 56.3862 241.024 56.4961 240.766 56.7158C240.512 56.9307 240.333 57.2139 240.231 57.5654L240.238 63H238.458V57.7852C238.434 56.8525 237.958 56.3862 237.03 56.3862C236.317 56.3862 235.812 56.6768 235.514 57.2578V63H233.734V55.0752H235.412ZM251.232 60.8467C251.232 60.5293 251.1 60.2876 250.836 60.1216C250.578 59.9556 250.146 59.8091 249.54 59.6821C248.935 59.5552 248.429 59.394 248.024 59.1987C247.135 58.769 246.691 58.1465 246.691 57.3311C246.691 56.6475 246.979 56.0762 247.555 55.6172C248.131 55.1582 248.864 54.9287 249.752 54.9287C250.7 54.9287 251.464 55.1631 252.045 55.6318C252.631 56.1006 252.924 56.7085 252.924 57.4556H251.144C251.144 57.1138 251.017 56.8306 250.763 56.606C250.509 56.3765 250.172 56.2617 249.752 56.2617C249.362 56.2617 249.042 56.3521 248.793 56.5327C248.549 56.7134 248.427 56.9551 248.427 57.2578C248.427 57.5312 248.542 57.7437 248.771 57.895C249 58.0464 249.464 58.2002 250.163 58.3564C250.861 58.5078 251.408 58.6909 251.803 58.9058C252.204 59.1157 252.499 59.3696 252.689 59.6675C252.885 59.9653 252.982 60.3267 252.982 60.7515C252.982 61.4644 252.687 62.043 252.096 62.4873C251.505 62.9268 250.731 63.1465 249.774 63.1465C249.125 63.1465 248.546 63.0293 248.039 62.7949C247.531 62.5605 247.135 62.2383 246.852 61.8281C246.569 61.418 246.427 60.9761 246.427 60.5024H248.156C248.18 60.9224 248.339 61.2471 248.632 61.4766C248.925 61.7012 249.313 61.8135 249.796 61.8135C250.265 61.8135 250.622 61.7256 250.866 61.5498C251.11 61.3691 251.232 61.1348 251.232 60.8467Z" fill="#01196F"/>
<path fill-rule="evenodd" clip-rule="evenodd" d="M13.9807 15.8154C13.9807 15.8154 19.2968 21.8047 36.9108 24.4257L38.7081 28.1025C38.7081 28.1025 35.8504 28.3583 34.4126 28.3583C34.4126 28.3583 32.3126 30.3605 29.1344 30.142C25.9561 29.9236 26.0128 27.5756 25.975 25.7918H25.4074C25.4074 25.7918 25.7858 28.9407 24.0642 28.9407C22.3427 28.9407 22.9291 25.7554 22.9291 25.7554H22.3427C22.3427 25.7554 21.7184 30.3241 18.559 30.3068C15.3996 30.2877 14.0186 28.9953 13.8483 28.3583C13.8483 28.3583 11.824 28.5585 10.0268 28.1217C10.0268 28.1217 11.3282 27.2116 12.1457 24.6193C12.1457 24.6193 15.763 24.3721 17.0196 22.2023C17.0196 22.2023 13.8712 22.3919 12.2373 22.2607C12.2353 22.2607 11.3371 19.5783 13.9807 15.8154ZM31.4852 33.9309C31.4852 33.9309 33.9685 33.9031 35.0618 32.196C35.0618 32.196 36.0963 32.31 36.9237 32.7928C36.9247 32.7928 35.4172 35.7511 31.4852 33.9309ZM16.8523 33.9309C16.8523 33.9309 14.3691 33.9031 13.2758 32.196C13.2758 32.196 12.2412 32.31 11.4138 32.7928C11.4128 32.7928 12.9213 35.7511 16.8523 33.9309ZM22.6135 31.784C23.5624 31.1757 24.7234 31.1757 25.6723 31.784C26.8253 32.5236 29.3375 35.7942 33.1222 35.7942C36.9068 35.7942 38.3546 34.0315 38.3546 34.0315C38.7688 38.5819 32.4132 37.5866 32.4132 37.5866C32.9449 38.5532 35.015 38.9229 35.015 38.9229C29.8413 40.0035 26.9747 35.5096 26.9747 35.5096C26.8273 34.9128 26.7088 34.0592 26.7088 34.0592C25.9103 37.0462 26.6202 40.9711 26.6202 40.9711C26.6202 40.9711 27.1519 38.8664 27.6249 38.8377C28.0978 38.8089 29.6939 39.5207 28.7779 40.6579C27.9415 41.6954 25.73 42.8938 24.1857 42.8938C22.6414 42.8938 20.3473 41.6963 19.5109 40.6579C18.5948 39.5198 20.1909 38.8089 20.6639 38.8377C21.1369 38.8664 21.6686 40.9711 21.6686 40.9711C21.6686 40.9711 22.3775 37.0462 21.58 34.0592C21.58 34.0592 21.4615 34.9128 21.3141 35.5096C21.3141 35.5096 18.4465 40.0035 13.2738 38.9229C13.2738 38.9229 15.3429 38.5532 15.8756 37.5866C15.8756 37.5866 9.51998 38.5819 9.9342 34.0315C9.9342 34.0315 11.3829 35.7942 15.1666 35.7942C18.9473 35.7942 21.4605 32.5236 22.6135 31.784Z" fill="#24B0FF"/>
<path fill-rule="evenodd" clip-rule="evenodd" d="M8.94342 17.4679C8.72237 18.0187 8.51925 18.584 8.35296 19.1415C8.35296 19.1415 1.96751 12.7699 9.91921 6.65512C9.91921 6.65512 9.41638 10.5235 11.3082 12.7699C11.3082 12.7699 10.7347 13.6982 10.0596 15.027C9.49504 14.684 8.44756 13.8678 8.0672 12.382C8.0672 12.382 7.33735 15.0241 8.94342 17.4679ZM13.5256 10.8645C13.5256 10.8645 11.6039 5.31873 15.2402 2.21869C18.8756 -0.882304 31.6763 0.284522 33.9227 0C33.9227 0 25.2023 3.61256 23.0147 6.82564C23.0147 6.82564 30.4048 2.73026 37.6775 2.73026C44.9491 2.73026 46.1907 6.31408 46.1907 6.31408C46.1907 6.31408 42.9985 6.20008 39.5693 7.19543C39.5693 7.19543 48.4669 7.79225 51.4231 7.47995C51.4231 7.47995 50.1516 10.0397 46.5153 9.98316C42.879 9.92664 38.4451 12.2862 34.3657 12.2862C30.2863 12.2862 23.6938 11.7459 21.5361 10.2102C21.5361 10.2102 23.1322 14.2491 33.154 14.5901C43.1757 14.9312 44.269 16.7513 44.269 16.7513C44.269 16.7513 43.0572 14.3056 40.1896 13.5382C40.1896 13.5382 44.0539 11.5399 47.5509 11.6606C56.566 11.9739 57.5129 16.2398 60.8535 17.0071C60.8535 17.0071 58.8143 18.0312 55.4139 17.6327C55.4139 17.6327 58.8252 20.1062 62.4665 18.287C62.4665 18.287 63.4602 22.7924 58.5404 22.7924C53.6217 22.7924 48.1632 17.7553 40.2125 22.9026L39.414 20.8841C39.414 20.8841 41.0399 20.6561 42.2218 19.2057C42.2218 19.2057 26.7615 20.6283 17.3014 14.456C17.3014 14.456 17.0226 6.45203 22.2699 1.82975C22.2709 1.82975 16.6412 3.68729 13.5256 10.8645ZM7.186 26.1578C7.10037 26.8265 7.03067 27.4597 6.99283 27.9856C6.99283 27.9856 -0.190177 26.449 3.17929 18.2305C3.17929 18.2305 5.72132 20.2499 8.02737 20.7902C8.02737 20.7902 7.82723 21.8967 7.60121 23.3164C6.69312 23.165 5.28221 22.7531 4.42392 21.6217C4.42392 21.6217 4.24071 24.4612 7.186 26.1578ZM41.4293 26.1367L40.5779 23.7935C40.5779 23.7935 41.8315 24.6585 44.8107 23.9305C47.7908 23.2024 57.5338 21.7003 63.6833 30.7331C63.6833 30.7331 59.9464 31.4842 57.6762 31.5982C57.6762 31.5982 52.8998 26.4327 41.4293 26.1367ZM6.7698 34.6714C6.72001 35.3554 6.66724 36.0365 6.61646 36.6266C6.61646 36.6266 1.75244 33.6214 1.94162 28.73C1.94162 28.73 3.83048 30.03 7.02768 30.8117C7.02768 30.8117 6.9769 31.6499 6.90222 32.7688C6.53381 32.5341 6.18731 32.2381 5.90154 31.8616C5.90154 31.8607 5.81193 33.2536 6.7698 34.6714ZM41.5587 31.0818C41.5587 31.0818 41.7559 29.4236 41.6573 28.6179C41.6573 28.6179 47.2243 27.8592 52.4955 31.556C52.4955 31.556 50.6734 31.3194 48.4072 31.6509C48.4072 31.6509 53.9254 37.007 67.1294 36.1534C67.1294 36.1534 63.5817 40.1827 55.403 40.1827C47.2243 40.1827 42.7416 36.0586 42.1004 35.4426L42.0516 33.5937C42.0516 33.5937 43.6278 35.0153 47.4214 35.7271C47.4224 35.7281 43.5302 33.2153 41.5587 31.0818ZM32.7009 46.3109C32.7009 46.3109 40.6327 52.8051 54.3794 47.5908C54.3794 47.5908 49.2555 48.2068 46.4476 46.5475C43.6397 44.8883 41.7668 43.7512 37.4803 43.9409C37.4803 43.9409 40.2882 44.9362 41.8156 46.5006C41.8156 46.5006 37.9732 47.1645 32.7009 46.3109ZM7.4399 41.0267C8.50132 42.3142 9.60656 43.3364 9.60656 43.3364C3.20119 51.1574 9.36062 57.5567 9.36062 57.5567C9.36062 57.5567 0 56.2529 0 46.2985C0 40.3733 5.66556 38.1805 5.66556 38.1805C5.78604 38.5369 5.97024 38.9124 6.19627 39.2927C0.795569 42.5106 2.05713 48.4903 2.05713 48.4903C3.11058 44.0357 6.09271 41.8228 7.4399 41.0267ZM23.5375 45.2686C23.5375 45.2686 19.6452 43.4676 18.2662 41.9981C18.2662 41.9981 9.15152 43.9418 9.15152 50.9571C9.15152 57.9725 21.567 62.0966 34.3279 60.0111C34.3279 60.0111 23.8332 59.3472 18.7093 53.2803C18.7093 53.2803 18.1676 55.224 18.8079 56.3611C18.8079 56.3611 13.1911 55.4127 13.1911 50.9571C13.1911 46.5016 17.0833 46.217 17.0833 46.217C17.0833 46.217 16.0488 46.8809 15.6545 49.1561C15.6545 49.1552 18.4136 46.5006 23.5375 45.2686ZM21.8617 51.1459C21.8617 51.1459 23.2905 50.5768 24.0791 49.4866C24.0791 49.4866 34.6226 60.6261 45.8064 51.6201C45.8064 51.6201 33.2426 52.6154 25.1137 45.3156C25.1137 45.3156 29.7945 43.3249 31.2721 41.8553C31.2721 41.8553 35.2131 41.0966 38.8594 41.3342C42.5056 41.5708 54.0837 45.9325 65.0215 44.4151C65.0215 44.4151 59.6507 54.1798 43.9832 55.3648C43.9832 55.3648 50.6346 56.9292 57.6304 53.9901C57.6304 53.9901 52.4577 60.7209 48.0228 60.7209C43.588 60.7209 42.6032 57.687 39.1053 57.687C35.6084 57.688 25.6065 58.1622 21.8617 51.1459ZM20.867 64.3584C20.867 64.3584 29.6122 66.0176 35.7707 63.7664C41.9291 61.5151 43.4077 63.1734 43.4077 63.1734C43.4077 63.1734 42.2995 63.114 41.0678 64.1802C41.0678 64.1802 44.5787 65.2465 47.1028 64.4762C47.1028 64.4762 43.1618 69.5718 36.3253 69.5718C29.4888 69.5727 23.885 67.3215 20.867 64.3584ZM9.53487 60.6251C9.53487 60.6251 13.3534 63.114 15.8168 63.1734C15.8168 63.1734 19.0189 67.7947 25.7937 71.2319C25.7937 71.2319 10.1512 70.9359 9.53487 60.6251Z" fill="#01196F"/>
</svg>
